<?xml version="1.0" encoding="UTF-8"?>
<svg width="1024px" height="1024px" viewBox="0 0 1024 1024" xmlns="http://www.w3.org/2000/svg" xmlns:xlink="http://www.w3.org/1999/xlink" version="1.1">
 <!-- Generated by Pixelmator Pro 1.6 -->
 <g id="New-Group">
  <path id="Path" d="M865.999 468.001 C865.999 389.001 659.55 207.43 511.8 207.011 366.25 206.598 160.994 362.008 160.994 467.008 160.994 523.218 380.274 817.284 444.993 817.004 495.932 816.782 534.257 817.004 575.995 817.004 642.108 817.004 865.999 552.231 865.999 468.001 Z" fill="#4e53dd" fill-opacity="1" stroke="#000000" stroke-width="24" stroke-opacity="1" stroke-linejoin="round"/>
  <g id="New-Group-1">
   <path id="Line" d="M511.811 319.979 L511.811 422.469" fill="none" stroke="#000000" stroke-width="18" stroke-opacity="1" stroke-linejoin="round"/>
   <path id="Line-1" d="M783.057 477.041 L710.245 549.17" fill="none" stroke="#000000" stroke-width="18" stroke-opacity="1" stroke-linejoin="round"/>
   <path id="Line-2" d="M251.864 475.554 L324.676 547.682" fill="none" stroke="#000000" stroke-width="18" stroke-opacity="1" stroke-linejoin="round"/>
   <path id="Line-3" d="M655.763 368.335 L618.032 463.627" fill="none" stroke="#000000" stroke-width="18" stroke-opacity="1" stroke-linejoin="round"/>
   <path id="Line-4" d="M405.59 463.627 L367.859 368.335" fill="none" stroke="#000000" stroke-width="18" stroke-opacity="1" stroke-linejoin="round"/>
  </g>
  <path id="Pointer" d="M485.13 707.356 C478.778 692.464 455.038 562.892 455.038 562.892 455.038 562.892 532.127 669.708 538.479 684.6 544.831 699.492 538.037 716.657 523.306 722.941 508.574 729.224 491.482 722.248 485.13 707.356 Z" fill="#000000" fill-opacity="1" stroke="none"/>
 </g>
</svg>
