<svg fill="#000000" xmlns="http://www.w3.org/2000/svg" viewBox="0 0 50 50" width="50px" height="50px"><path d="M 36 13 C 34.347656 13 33 14.347656 33 16 C 33 17.652344 34.347656 19 36 19 C 37.652344 19 39 17.652344 39 16 C 39 14.347656 37.652344 13 36 13 Z M 45 13 C 43.347656 13 42 14.347656 42 16 C 42 17.652344 43.347656 19 45 19 C 46.652344 19 48 17.652344 48 16 C 48 14.347656 46.652344 13 45 13 Z M 15.90625 14 C 15.90625 14 15.816406 14.011719 15.6875 14.03125 C 15.464844 14.050781 15.25 14.109375 15.03125 14.21875 C 14.335938 14.511719 13.410156 15.210938 13 16.90625 C 12.582031 18.761719 12.601563 17.726563 10 28.8125 L 6.15625 14.9375 C 6.042969 14.496094 5.640625 14.1875 5.1875 14.1875 L 1.8125 14.1875 C 1.5 14.1875 1.1875 14.34375 1 14.59375 C 0.8125 14.84375 0.757813 15.167969 0.84375 15.46875 L 5.53125 31.8125 C 5.808594 33.289063 7.046875 36 9.8125 36 C 12.613281 36 13.824219 33.25 14.0625 31.875 L 16 24.71875 L 17.90625 31.78125 C 18.164063 33.242188 19.386719 36 22.1875 36 C 24.953125 36 26.191406 33.289063 26.46875 31.8125 L 31.15625 15.46875 C 31.242188 15.167969 31.1875 14.84375 31 14.59375 C 30.8125 14.34375 30.5 14.1875 30.1875 14.1875 L 26.75 14.1875 C 26.296875 14.1875 25.894531 14.496094 25.78125 14.9375 L 21.96875 28.90625 C 21.894531 28.628906 21.8125 28.308594 21.71875 27.96875 C 21.070313 25.523438 19.460938 19.378906 18.90625 17 C 18.402344 14.835938 17.050781 14.230469 16.34375 14.0625 C 16.304688 14.050781 16.289063 14.039063 16.25 14.03125 C 16.046875 13.992188 15.90625 14 15.90625 14 Z M 34 21 C 33.445313 21 33 21.449219 33 22 L 33 35 C 33 35.554688 33.445313 36 34 36 L 38 36 C 38.554688 36 39 35.554688 39 35 L 39 22 C 39 21.449219 38.554688 21 38 21 Z M 43 21 C 42.445313 21 42 21.449219 42 22 L 42 35 C 42 35.554688 42.445313 36 43 36 L 47 36 C 47.554688 36 48 35.554688 48 35 L 48 22 C 48 21.449219 47.554688 21 47 21 Z"/></svg>